<?xml version="1.0" standalone="no"?>
<!DOCTYPE svg PUBLIC "-//W3C//DTD SVG 20010904//EN"
 "http://www.w3.org/TR/2001/REC-SVG-20010904/DTD/svg10.dtd">
<svg version="1.0" xmlns="http://www.w3.org/2000/svg"
 width="900.000000pt" height="900.000000pt" viewBox="0 0 900.000000 900.000000"
 preserveAspectRatio="xMidYMid meet">
<metadata>
Created by potrace 1.14, written by Peter Selinger 2001-2017
</metadata>
<g transform="translate(0.000000,900.000000) scale(0.100000,-0.100000)"
fill="#000000" stroke="none">
<path d="M4695 7240 c-3 -11 -11 -20 -16 -20 -6 0 -7 -4 -4 -10 3 -5 1 -10 -5
-10 -6 0 -8 -4 -5 -10 3 -5 0 -10 -7 -11 -7 0 -4 -4 7 -9 11 -5 15 -9 9 -9 -7
-1 -15 -8 -18 -17 -4 -10 -2 -13 6 -8 7 5 8 3 2 -7 -4 -8 -9 -27 -10 -44 -2
-16 -6 -57 -9 -90 -4 -33 -9 -80 -10 -105 -3 -44 -7 -74 -21 -170 -3 -25 -9
-67 -13 -95 -5 -43 -11 -52 -48 -79 -24 -16 -45 -27 -49 -24 -10 11 -8 111 3
150 8 27 8 38 -1 41 -14 5 -15 119 -1 129 6 5 5 8 -3 8 -7 0 -11 4 -8 9 3 5
-1 12 -10 15 -10 4 -13 2 -8 -6 5 -8 2 -9 -9 -5 -10 4 -17 2 -17 -4 0 -7 -12
-10 -28 -7 -21 3 -28 0 -29 -13 -2 -16 1 -16 32 -3 59 24 63 21 52 -37 -7 -38
-7 -57 1 -70 17 -27 15 -45 -9 -60 -11 -8 -24 -32 -29 -54 -11 -48 -13 -215
-2 -215 4 0 20 18 35 40 36 51 185 184 262 235 33 22 62 42 65 45 9 10 165 84
210 100 32 12 48 24 54 43 9 25 7 31 -22 89 -6 11 47 1 63 -12 8 -7 15 -27 15
-44 l0 -32 104 20 c58 12 108 24 111 28 7 7 -24 4 -74 -8 -30 -6 -71 20 -71
46 0 38 -52 58 -138 54 -41 -2 -80 -8 -85 -13 -5 -5 -11 -28 -13 -52 -12 -108
-12 -107 -65 -135 -28 -14 -53 -23 -55 -21 -14 14 -10 129 7 182 10 33 19 79
19 103 0 24 5 53 11 64 8 15 8 19 0 14 -15 -9 -14 7 1 22 9 9 7 13 -6 18 -14
5 -14 9 -4 23 7 9 9 13 4 9 -4 -4 -18 2 -29 13 -12 11 -26 18 -33 15 -6 -2
-17 0 -25 4 -8 6 -16 4 -21 -3 -6 -9 -8 -9 -8 1 0 6 -5 12 -11 12 -5 0 -7 -5
-3 -11 5 -8 1 -8 -14 0 -17 9 -22 8 -27 -9z m-64 -607 c-12 -20 -14 -14 -5 12
4 9 9 14 11 11 3 -2 0 -13 -6 -23z"/>
<path d="M3226 7165 c-19 -7 -42 -20 -51 -29 -9 -9 -21 -16 -26 -16 -6 0 -8
-4 -4 -9 3 -5 1 -12 -5 -16 -5 -3 -10 -15 -10 -25 0 -24 48 -131 65 -145 20
-16 74 -101 98 -153 12 -26 33 -59 46 -72 12 -14 38 -54 56 -90 19 -36 43 -78
54 -95 12 -16 21 -32 21 -35 0 -5 -36 -24 -135 -73 -22 -11 -48 -28 -57 -39
-10 -11 -18 -17 -18 -12 0 4 -7 -1 -16 -12 -8 -10 -13 -13 -9 -6 13 25 -14 11
-36 -19 -14 -20 -24 -27 -29 -19 -5 7 -11 6 -21 -6 -12 -15 -12 -17 0 -9 9 5
12 4 7 -3 -4 -6 -13 -9 -20 -6 -7 3 -24 -9 -37 -26 -13 -17 -40 -40 -59 -52
-19 -12 -41 -30 -48 -40 -7 -10 -18 -18 -24 -18 -6 0 -20 -8 -31 -17 -15 -13
-21 -15 -24 -5 -7 18 -23 15 -23 -4 0 -13 -3 -14 -14 -5 -8 6 -18 11 -22 9 -5
-1 -26 15 -48 36 -21 21 -55 45 -74 53 -33 13 -37 13 -48 -2 -9 -12 -13 -13
-17 -3 -4 10 -6 10 -6 1 -1 -7 -8 -13 -17 -13 -10 0 -14 -6 -10 -15 3 -8 0
-14 -7 -12 -7 1 -11 -6 -9 -16 2 -9 -2 -16 -9 -15 -6 2 -14 -3 -17 -11 -3 -9
0 -11 9 -6 11 6 12 5 2 -6 -7 -7 -13 -20 -13 -29 0 -16 74 -99 104 -115 16 -9
16 -12 -8 -34 l-25 -24 -93 91 c-50 50 -94 89 -96 87 -3 -3 -11 3 -19 13 -8 9
-11 11 -7 3 5 -9 3 -12 -4 -7 -7 4 -12 14 -12 22 0 8 -7 14 -16 14 -9 0 -12 5
-8 12 5 7 2 9 -8 5 -22 -8 -30 3 -16 20 6 8 7 13 2 12 -21 -4 -34 2 -34 16 0
8 -4 15 -10 15 -5 0 -10 4 -10 10 0 13 -91 98 -142 132 -47 32 -118 54 -127
41 -3 -5 -14 -12 -24 -16 -9 -4 -20 -15 -24 -24 -4 -10 -11 -21 -17 -25 -7 -5
-5 -8 4 -8 13 0 13 -1 0 -10 -13 -8 -13 -10 -1 -10 11 0 9 -4 -5 -15 -12 -9
-14 -14 -5 -15 8 0 11 -6 7 -16 -3 -8 -2 -12 4 -9 9 6 14 -8 11 -27 0 -5 5 -8
13 -8 8 0 24 -11 35 -25 11 -15 37 -38 58 -52 21 -15 58 -40 83 -57 24 -17 52
-38 61 -47 9 -9 57 -43 105 -75 131 -84 184 -126 184 -144 0 -8 -20 -37 -45
-65 -24 -27 -52 -66 -62 -85 -10 -19 -21 -36 -25 -38 -5 -2 -8 -10 -8 -18 0
-9 -5 -12 -12 -8 -10 5 -10 4 -1 -6 13 -15 6 -43 -9 -34 -6 4 -9 1 -6 -6 2 -7
-6 -24 -19 -38 -19 -21 -21 -28 -11 -40 10 -13 10 -14 1 -8 -7 4 -13 3 -13 -3
0 -6 -8 -8 -17 -4 -15 5 -14 3 2 -11 14 -11 15 -15 5 -14 -8 2 -14 -3 -12 -9
1 -7 -2 -13 -7 -13 -5 0 -12 -7 -15 -16 -3 -8 -2 -13 3 -9 18 10 5 -25 -15
-41 -10 -8 -12 -12 -4 -8 11 6 10 0 -4 -21 -11 -17 -26 -36 -33 -44 -10 -10
-11 -16 -2 -27 9 -11 6 -16 -14 -25 -14 -6 -24 -18 -22 -28 1 -9 -1 -20 -5
-26 -10 -12 -48 -116 -61 -165 -18 -67 -19 -81 -9 -99 7 -14 6 -22 -4 -30 -7
-6 -16 -8 -19 -5 -4 4 -17 8 -29 9 -29 4 -157 35 -183 46 -57 22 -122 39 -151
39 -17 0 -48 7 -69 15 -28 12 -40 13 -51 4 -8 -6 -14 -8 -14 -5 0 4 -6 1 -14
-6 -8 -7 -12 -16 -9 -20 2 -5 -1 -8 -8 -8 -7 0 -9 -10 -7 -25 4 -20 2 -23 -8
-15 -9 9 -12 7 -9 -7 1 -10 7 -17 12 -16 5 1 10 -4 10 -12 0 -8 -4 -12 -9 -9
-14 9 -9 -4 9 -21 14 -14 14 -18 2 -27 -11 -8 -11 -9 2 -5 9 3 22 0 29 -6 10
-9 11 -9 6 1 -4 6 -3 12 3 12 5 0 11 -6 13 -12 6 -16 69 -12 81 5 6 8 7 7 4
-5 -3 -9 1 -19 9 -22 9 -3 12 -1 9 4 -3 6 -1 10 4 10 6 0 11 -5 11 -12 0 -9 3
-9 11 -1 14 14 51 5 43 -11 -3 -6 2 -2 10 8 16 19 16 19 17 -5 1 -19 2 -20 6
-5 4 15 7 16 14 5 6 -10 9 -10 9 -2 0 7 7 10 15 7 8 -4 12 -11 8 -18 -3 -6 2
-4 13 5 19 16 54 15 54 -2 0 -11 23 -7 32 6 5 6 8 5 8 -3 0 -8 5 -10 13 -5 15
9 56 12 55 4 -2 -20 4 -22 17 -5 14 18 14 18 10 -4 -2 -12 0 -20 5 -17 5 3 11
1 15 -5 3 -5 33 -10 67 -10 l60 0 -6 -47 c-14 -115 -16 -203 -3 -203 6 0 61
23 121 50 60 28 113 50 118 50 5 0 14 -13 19 -30 6 -16 17 -30 25 -30 8 0 44
14 81 30 36 17 72 30 79 30 8 0 14 3 14 8 0 4 15 12 33 18 67 24 231 100 234
110 2 6 -25 18 -59 28 -35 10 -106 31 -158 46 -52 16 -121 36 -152 45 -32 9
-60 20 -62 24 -3 4 -3 24 1 44 7 44 23 47 98 18 28 -11 66 -25 85 -32 19 -6
44 -15 55 -20 11 -4 47 -17 80 -29 33 -11 67 -23 75 -27 116 -47 145 -53 188
-41 23 7 42 16 42 20 0 4 9 8 19 8 33 0 33 28 -1 45 -17 8 -37 15 -45 15 -7 0
-21 4 -31 10 -9 5 -46 19 -82 31 -36 12 -69 25 -75 30 -5 5 -19 9 -31 9 -13 0
-26 5 -29 10 -3 6 -17 10 -30 10 -13 0 -27 5 -30 10 -3 6 -15 10 -26 10 -22 0
-23 10 -8 63 8 31 14 37 30 32 10 -3 28 -8 39 -11 11 -3 20 -10 20 -15 0 -5 7
-9 15 -9 7 0 60 -22 117 -49 57 -27 121 -57 143 -66 22 -10 62 -28 89 -41 53
-25 91 -31 101 -14 3 6 17 10 31 10 13 0 24 4 24 9 0 5 9 11 20 14 22 6 28 37
7 37 -7 0 -23 9 -35 20 -12 11 -24 20 -27 20 -4 0 -60 36 -126 80 -65 44 -123
80 -129 80 -5 0 -10 3 -10 8 0 4 -18 18 -40 32 -22 13 -40 28 -40 32 0 4 -9 8
-20 8 -11 0 -20 4 -20 9 0 5 -8 11 -17 15 -25 8 -53 26 -97 64 -8 6 -20 12
-26 12 -5 0 -10 5 -10 10 0 6 -5 10 -12 10 -6 0 -35 18 -65 40 l-53 41 17 27
c37 60 42 63 76 46 16 -9 35 -20 41 -25 6 -6 54 -42 106 -82 52 -39 100 -76
106 -82 6 -5 22 -17 34 -25 12 -8 28 -21 36 -27 7 -7 16 -13 21 -13 4 0 22
-12 38 -26 17 -14 59 -47 95 -72 36 -26 72 -54 81 -64 9 -10 22 -18 29 -18 7
0 20 -8 29 -18 9 -10 32 -29 51 -42 19 -13 41 -30 48 -37 15 -14 34 -19 102
-27 77 -8 103 -16 167 -47 73 -35 116 -84 164 -184 33 -69 34 -72 34 -205 0
-115 -4 -144 -23 -195 -12 -32 -22 -62 -22 -66 0 -7 223 -198 249 -214 9 -5
12 -4 7 3 -3 6 -18 55 -32 109 -29 113 -35 133 -64 228 -23 75 -52 176 -75
265 -8 30 -23 82 -34 114 -12 33 -21 67 -21 77 0 27 -36 105 -63 136 -86 98
-107 126 -102 134 4 5 10 9 16 9 5 0 31 10 57 21 26 12 62 28 80 36 17 8 32
18 32 23 0 5 -18 36 -40 69 -22 33 -45 71 -52 85 -6 15 -15 26 -20 26 -4 0 -8
8 -8 18 0 10 -9 24 -20 32 -11 8 -20 22 -20 32 0 10 -4 18 -8 18 -4 0 -19 22
-33 50 -13 27 -27 50 -31 50 -5 0 -8 7 -8 15 0 8 -4 15 -10 15 -5 0 -10 6 -10
14 0 8 -3 16 -7 18 -12 5 -73 107 -73 121 0 16 56 41 75 33 8 -3 27 -31 43
-63 56 -110 63 -123 74 -129 6 -4 8 2 3 17 -23 80 -26 95 -35 186 -12 120 -17
138 -71 247 -27 54 -49 104 -49 110 0 16 43 54 65 58 12 2 23 -12 38 -49 12
-29 24 -53 27 -53 3 0 12 21 20 47 7 26 19 59 27 73 7 14 13 29 13 33 0 18 71
148 114 210 25 36 46 69 46 73 0 12 -262 -42 -315 -66 -11 -4 -41 -15 -67 -24
-46 -14 -48 -14 -59 5 -21 39 -20 63 4 81 17 13 18 18 6 18 -10 0 -29 29 -52
83 -33 74 -95 236 -101 262 -1 6 -8 20 -14 33 -7 12 -10 22 -7 22 4 0 -2 15
-13 33 -11 17 -27 57 -37 87 -36 112 -57 129 -129 105z m-1176 -799 c0 -3 -4
-8 -10 -11 -5 -3 -10 -1 -10 4 0 6 5 11 10 11 6 0 10 -2 10 -4z m660 -160 c0
-3 -4 -8 -10 -11 -5 -3 -10 -1 -10 4 0 6 5 11 10 11 6 0 10 -2 10 -4z m-450
-946 c0 -5 -5 -10 -11 -10 -5 0 -7 5 -4 10 3 6 8 10 11 10 2 0 4 -4 4 -10z"/>
<path d="M5500 6920 c-12 -8 -10 -10 8 -10 13 0 20 4 17 10 -7 12 -6 12 -25 0z"/>
<path d="M5570 6918 c0 -4 7 -8 15 -8 8 0 15 4 15 8 0 5 -7 9 -15 9 -8 0 -15
-4 -15 -9z"/>
<path d="M5425 6910 c-27 -7 -28 -8 -5 -8 14 0 34 3 45 8 25 11 2 11 -40 0z"/>
<path d="M5771 6910 c-8 -4 -1 -10 19 -14 46 -9 60 -8 60 6 0 6 -3 9 -6 6 -3
-4 -18 -3 -33 2 -16 4 -34 4 -40 0z"/>
<path d="M5495 6859 c-239 -8 -441 -63 -635 -172 -157 -88 -306 -220 -393
-350 -51 -76 -52 -76 -69 38 -18 120 -20 146 -10 158 5 6 12 44 16 82 3 39 10
86 16 105 8 27 7 38 -5 49 -13 13 -16 13 -27 0 -7 -9 -40 -31 -72 -50 -62 -36
-268 -231 -302 -286 -10 -17 -38 -62 -60 -100 -48 -78 -106 -244 -124 -353
-28 -167 22 -401 126 -588 21 -37 40 -69 43 -72 7 -6 27 -47 35 -74 8 -24 37
-17 133 29 50 25 87 52 125 93 49 55 55 58 83 50 50 -15 225 -11 290 7 180 47
354 175 477 349 90 128 136 231 243 547 29 86 71 188 93 225 42 72 191 257
223 277 29 18 23 34 -13 38 -18 2 -105 1 -193 -2z"/>
<path d="M4329 6805 c-3 -2 -14 -6 -25 -8 -31 -5 -112 -48 -147 -79 l-32 -29
30 5 c29 5 209 116 188 116 -5 0 -12 -2 -14 -5z"/>
<path d="M5689 6723 c-139 -147 -186 -227 -257 -438 -94 -276 -151 -408 -228
-523 -24 -36 -44 -69 -44 -74 0 -13 94 35 110 57 8 11 29 48 47 83 17 34 34
58 38 52 3 -5 13 -10 21 -10 9 0 22 -6 29 -14 11 -11 11 -17 0 -40 -8 -14 -12
-26 -9 -26 8 0 104 40 171 71 35 16 66 29 71 29 4 0 13 5 20 12 14 14 19 15
145 30 53 6 97 14 97 18 0 8 -57 60 -65 60 -3 0 -18 12 -33 26 -36 34 -293
204 -309 204 -7 0 -13 11 -13 25 0 14 2 25 5 25 16 0 187 -98 287 -164 55 -37
183 -131 239 -177 37 -30 77 -61 89 -69 111 -74 162 -124 216 -215 20 -33 38
-62 41 -65 11 -12 23 30 23 84 l0 59 -92 91 c-152 150 -318 285 -448 366 -30
19 -57 37 -60 40 -6 6 -169 100 -217 124 -32 16 -44 36 -22 36 6 0 41 -14 77
-32 122 -58 121 -58 116 -44 -3 8 -34 26 -70 41 -61 26 -92 54 -76 69 3 4 0
11 -7 15 -11 7 -7 18 19 49 18 22 30 45 26 50 -3 5 4 18 17 28 l22 19 -19 -25
c-11 -14 15 11 57 55 74 77 92 114 53 107 -15 -3 -18 1 -13 17 8 32 -4 26 -54
-26z"/>
<path d="M3958 6653 c7 -3 16 -2 19 1 4 3 -2 6 -13 5 -11 0 -14 -3 -6 -6z"/>
<path d="M3625 6555 c-16 -8 -23 -14 -15 -14 8 0 26 6 40 14 32 18 15 18 -25
0z"/>
<path d="M5614 6406 c11 -9 24 -16 30 -16 12 0 7 5 -24 19 -24 11 -24 11 -6
-3z"/>
<path d="M6717 6383 c4 -11 2 -14 -5 -9 -7 4 -12 2 -12 -6 0 -8 -3 -9 -8 -3
-9 14 -62 18 -62 5 0 -6 10 -9 23 -6 18 3 38 -17 117 -122 52 -68 128 -170
168 -226 40 -55 83 -112 96 -126 12 -14 53 -68 91 -120 38 -52 72 -97 75 -100
7 -6 142 -184 179 -236 13 -19 30 -34 37 -34 8 0 22 -4 32 -10 24 -14 205 -80
217 -80 6 1 -1 7 -15 15 -29 16 -152 60 -162 57 -3 -1 -9 6 -12 14 -4 12 -2
15 9 10 8 -3 15 -3 15 0 0 8 -127 158 -176 208 -11 12 -24 33 -27 46 -3 14
-29 51 -57 82 -27 31 -50 59 -50 63 0 7 -21 33 -101 123 -16 19 -29 36 -29 39
0 22 -305 416 -329 425 -16 5 -19 4 -14 -9z m438 -563 c10 -11 16 -20 13 -20
-3 0 -13 9 -23 20 -10 11 -16 20 -13 20 3 0 13 -9 23 -20z m105 -152 c15 -21
17 -28 6 -19 -16 13 -41 51 -33 51 2 0 14 -15 27 -32z m65 -78 c10 -11 16 -20
13 -20 -3 0 -13 9 -23 20 -10 11 -16 20 -13 20 3 0 13 -9 23 -20z"/>
<path d="M6600 6365 c-7 -8 -16 -13 -19 -10 -4 2 -8 -2 -8 -10 0 -13 3 -13 17
0 9 8 19 13 22 10 2 -3 5 2 5 10 0 19 -2 19 -17 0z"/>
<path d="M6520 6320 c-24 -19 -24 -19 -2 -13 12 3 22 10 22 15 0 5 5 6 12 2 7
-4 8 -3 4 4 -9 15 -6 15 -36 -8z"/>
<path d="M6463 6294 c0 -7 6 -10 14 -7 7 3 13 8 13 12 0 4 -6 8 -13 8 -8 0
-14 -6 -14 -13z"/>
<path d="M6505 6247 c-76 -34 -140 -67 -142 -73 -2 -6 17 -25 42 -43 30 -21
45 -40 45 -54 0 -12 -7 -123 -15 -247 -8 -123 -17 -312 -21 -420 -6 -198 -17
-267 -22 -137 -4 99 -36 216 -89 319 -55 107 -146 199 -249 249 -67 33 -72 34
-194 34 -120 0 -127 -1 -190 -32 -36 -17 -126 -58 -200 -91 -187 -82 -190 -84
-190 -97 0 -6 17 -25 38 -42 26 -21 42 -45 51 -74 29 -103 54 -188 72 -245 11
-33 22 -71 24 -85 3 -13 11 -46 20 -74 8 -27 26 -90 40 -140 14 -49 37 -126
50 -170 14 -44 38 -129 55 -190 47 -171 51 -185 53 -185 9 0 276 118 347 153
166 82 293 247 339 438 12 48 21 97 21 110 0 12 3 20 6 17 3 -4 0 -92 -6 -198
-7 -105 -10 -194 -7 -197 15 -14 294 111 302 136 2 9 9 68 15 131 6 63 13 116
15 118 8 9 270 122 281 122 6 0 19 -10 27 -22 9 -13 43 -51 76 -86 l60 -63
103 44 c238 103 321 147 276 147 -7 0 -40 12 -73 26 -33 14 -68 28 -77 31 -15
5 -80 86 -201 251 -26 36 -62 83 -79 104 -17 21 -51 67 -77 102 -114 158 -366
486 -376 490 -7 2 -74 -24 -150 -57z"/>
<path d="M6426 6285 c-3 -8 -1 -15 4 -15 13 0 22 18 11 24 -5 3 -11 -1 -15 -9z"/>
<path d="M6400 6271 c0 -7 -4 -9 -10 -6 -5 3 -10 1 -10 -4 0 -6 4 -11 9 -11
13 0 25 20 17 27 -3 4 -6 1 -6 -6z"/>
<path d="M6350 6249 c0 -5 -4 -8 -9 -5 -5 3 -12 -1 -15 -10 -3 -8 -11 -12 -17
-8 -7 4 -9 3 -5 -4 4 -7 16 -6 36 6 30 17 39 32 20 32 -5 0 -10 -5 -10 -11z"/>
<path d="M5860 6245 c0 -2 28 -21 62 -41 35 -20 83 -53 108 -73 56 -46 88 -65
40 -23 -19 16 -52 46 -72 65 -31 29 -138 85 -138 72z"/>
<path d="M6260 6213 c-7 -38 6 -77 21 -67 6 3 16 0 24 -6 8 -7 15 -10 15 -6 0
3 -14 15 -31 25 l-31 19 24 17 c13 10 16 15 6 12 -9 -3 -19 -1 -22 6 -3 9 -5
9 -6 0z"/>
<path d="M6333 6108 c0 -12 1 -17 4 -10 4 10 9 8 20 -7 8 -12 21 -21 30 -21 9
0 13 3 9 8 -4 4 -11 7 -16 7 -4 0 -16 11 -27 23 l-19 24 -1 -24z"/>
<path d="M6112 6078 c6 -17 101 -89 108 -81 3 3 -1 8 -9 11 -7 2 -22 13 -32
23 -11 11 -21 19 -24 19 -3 0 -5 3 -6 8 -1 12 -21 32 -31 32 -5 0 -8 -6 -6
-12z"/>
<path d="M6391 6044 c0 -11 3 -14 6 -6 3 7 2 16 -1 19 -3 4 -6 -2 -5 -13z"/>
<path d="M6390 6006 c0 -8 -5 -16 -12 -18 -8 -3 -7 -6 3 -10 10 -4 15 1 17 18
1 13 0 24 -3 24 -3 0 -5 -6 -5 -14z"/>
<path d="M6255 5960 c16 -16 31 -27 34 -24 3 4 0 9 -7 11 -6 3 -10 9 -6 14 3
5 -2 9 -10 9 -9 0 -16 5 -16 10 0 6 -5 10 -12 10 -6 0 1 -13 17 -30z"/>
<path d="M6376 5944 c-9 -8 -16 -20 -16 -25 0 -6 -10 -9 -22 -7 -13 2 -22 9
-20 16 1 8 -2 11 -9 6 -8 -4 2 -18 27 -40 22 -18 42 -29 46 -26 6 7 18 92 12
92 -1 0 -10 -7 -18 -16z"/>
<path d="M5195 5622 c-6 -5 -35 -19 -65 -32 -30 -12 -77 -33 -105 -45 -27 -12
-58 -25 -69 -29 -12 -4 -16 -12 -11 -24 4 -9 16 -51 26 -92 11 -41 26 -97 33
-125 8 -27 30 -108 51 -178 20 -71 35 -130 33 -133 -3 -2 -27 12 -54 30 -27
19 -130 87 -229 151 -99 64 -207 135 -239 158 -33 22 -65 40 -70 40 -6 0 -46
-16 -89 -36 -42 -21 -80 -37 -82 -37 -19 0 -95 -45 -95 -55 0 -8 22 -26 50
-41 54 -29 56 -33 100 -199 12 -44 37 -129 55 -190 19 -60 43 -144 54 -185 32
-116 58 -208 81 -286 12 -39 23 -84 26 -99 3 -16 8 -33 12 -39 3 -6 7 -16 8
-22 5 -33 49 -154 56 -154 12 0 190 76 249 106 l47 23 -25 88 c-13 48 -31 111
-38 138 -7 28 -23 82 -35 120 -20 65 -43 148 -57 203 -3 12 -3 22 1 22 3 0 65
-36 137 -80 73 -44 134 -80 136 -80 5 0 281 -165 298 -177 6 -5 27 -16 47 -25
36 -17 38 -17 102 10 77 32 77 32 42 148 -30 99 -127 433 -156 539 -12 44 -33
117 -47 162 -14 46 -26 89 -27 95 -2 7 -5 20 -8 28 -11 30 -39 131 -44 153 -2
12 -13 52 -25 89 -17 57 -24 68 -43 68 -12 0 -26 -4 -31 -8z"/>
<path d="M7620 5251 c-36 -16 -94 -42 -130 -58 -116 -54 -180 -83 -186 -83 -3
0 -34 -13 -69 -30 -35 -16 -70 -30 -77 -30 -7 0 -47 38 -88 85 -41 47 -77 85
-81 85 -4 0 -57 -23 -117 -52 -125 -59 -110 -33 -132 -220 l-12 -96 -107 -48
c-147 -65 -253 -113 -273 -124 -26 -15 -27 -14 -21 31 5 32 3 41 -7 37 -8 -2
-18 -13 -24 -23 -35 -62 -177 -177 -271 -219 -22 -9 -53 -24 -70 -31 -16 -7
-46 -20 -65 -28 -36 -16 -128 -57 -235 -106 -197 -91 -188 -89 -262 -39 -23
15 -44 28 -48 28 -4 0 -26 14 -50 30 -24 17 -46 30 -49 30 -3 0 -34 17 -68 38
-35 21 -84 49 -110 62 -27 14 -48 28 -48 32 0 5 -6 8 -14 8 -8 0 -21 6 -28 14
-14 13 -72 46 -82 46 -9 0 4 -60 31 -140 23 -69 35 -113 82 -292 l17 -67 -25
-11 c-14 -7 -34 -17 -44 -22 -11 -5 -89 -40 -175 -77 -313 -136 -488 -213
-547 -241 -33 -15 -89 -40 -125 -55 -36 -15 -88 -39 -117 -53 -46 -22 -55 -23
-70 -11 -19 16 -100 90 -184 167 l-58 54 25 -89 c13 -48 32 -117 41 -152 19
-74 25 -65 -92 -117 -38 -17 -101 -45 -140 -63 -110 -52 -175 -81 -180 -81 -3
0 -37 -15 -77 -34 -147 -69 -230 -106 -234 -106 -2 0 -41 -17 -86 -39 -201
-93 -235 -109 -271 -121 -21 -6 -40 -10 -41 -8 -2 1 -32 71 -67 153 -34 83
-66 154 -69 158 -6 7 -28 -138 -34 -228 -2 -22 -9 -80 -16 -129 l-14 -88 -45
-20 c-24 -10 -52 -16 -60 -13 -12 4 -11 2 2 -9 34 -26 102 -29 146 -7 22 12
43 21 47 21 4 0 49 -44 100 -97 51 -54 105 -109 119 -123 14 -14 25 -31 25
-37 0 -6 7 -16 15 -23 8 -7 15 -17 15 -22 0 -13 -47 -55 -106 -94 -28 -19 -83
-68 -123 -109 -71 -74 -72 -76 -62 -111 5 -19 22 -45 37 -56 32 -25 104 -36
104 -16 0 10 2 10 8 1 6 -9 11 -6 21 8 9 16 9 19 0 14 -8 -6 -10 -4 -5 4 5 7
15 10 23 7 8 -3 11 -1 8 4 -3 6 -1 10 5 10 7 0 10 7 7 15 -4 8 -1 17 5 21 7 5
8 2 3 -6 -5 -9 -4 -11 3 -6 7 4 12 14 12 22 0 8 4 13 8 10 5 -3 19 13 33 35
46 76 120 169 134 169 8 0 18 -7 22 -15 17 -30 182 -137 303 -196 69 -34 154
-81 190 -104 36 -24 77 -47 93 -50 15 -4 30 -11 33 -16 3 -5 15 -9 28 -9 12 0
27 -5 32 -10 6 -6 20 -12 32 -15 43 -8 237 -100 258 -122 14 -15 37 -24 74
-28 30 -4 79 -14 109 -24 189 -61 197 -62 273 -47 34 6 38 10 45 48 6 30 14
42 28 45 87 15 95 15 122 -7 22 -17 38 -21 90 -18 35 1 64 7 64 13 1 5 3 25 5
43 1 19 5 36 8 39 3 3 32 11 65 18 66 14 67 12 62 -46 -7 -73 337 16 679 174
14 6 35 21 47 33 13 11 55 38 95 58 139 72 208 123 347 255 41 39 81 71 88 71
7 0 31 12 52 26 l39 25 69 -70 c38 -39 78 -88 89 -110 10 -22 22 -37 25 -35
13 8 71 -55 63 -68 -4 -7 -4 -10 1 -6 11 11 56 -44 50 -61 -5 -11 -3 -12 10
-1 9 7 15 9 14 4 -4 -25 2 -54 11 -49 9 6 14 -8 11 -28 -1 -5 3 -6 9 -2 6 3 7
12 3 18 -3 7 3 4 15 -7 20 -17 22 -18 28 -2 5 13 9 15 15 5 11 -18 36 -20 49
-4 6 8 19 11 28 8 15 -4 15 -3 2 6 -14 10 -7 16 13 12 5 -1 6 3 3 8 -4 5 0 16
8 23 10 11 11 19 3 34 -9 17 -9 18 6 5 15 -12 17 -12 11 4 -5 13 -4 16 4 11 8
-5 10 -2 6 8 -3 9 -11 13 -18 9 -7 -5 -7 -2 1 8 14 17 6 32 -20 42 -10 4 -16
11 -12 16 3 5 0 13 -6 17 -8 4 -9 3 -5 -4 4 -7 2 -12 -3 -12 -6 0 -11 6 -11
13 0 6 -37 35 -81 62 -45 28 -92 60 -106 73 -13 12 -26 22 -29 22 -4 0 -29 21
-58 46 -51 47 -56 61 -32 96 12 17 15 16 50 -11 21 -17 53 -35 72 -41 31 -11
39 -9 69 12 39 26 57 62 61 119 2 32 -4 45 -35 78 -23 25 -52 43 -79 50 -23 7
-42 16 -42 21 0 6 4 10 8 10 4 0 13 15 20 33 7 18 27 51 46 73 40 47 57 78
122 234 27 63 57 123 66 132 26 26 58 22 140 -16 40 -18 98 -45 128 -58 30
-14 72 -37 94 -51 21 -15 56 -32 77 -37 22 -6 39 -17 39 -24 0 -8 18 -21 40
-30 70 -28 190 -88 190 -95 0 -4 10 -7 22 -8 11 -1 24 -6 27 -11 15 -22 141
-38 140 -17 0 5 9 13 21 17 12 4 18 12 15 18 -3 5 -1 10 6 10 8 0 7 5 -2 17
-8 9 -9 14 -3 10 15 -9 26 17 17 40 -4 10 -2 14 4 10 5 -3 10 0 10 8 0 8 -5
12 -10 8 -5 -3 -6 4 -2 17 5 15 4 20 -4 16 -10 -6 -16 12 -12 36 0 4 -7 4 -16
1 -12 -5 -15 -2 -10 9 7 20 -16 31 -33 15 -10 -9 -11 -9 -5 2 6 11 3 13 -13 9
-14 -4 -20 -2 -15 5 4 6 0 8 -10 4 -10 -3 -17 -3 -17 2 0 10 -129 45 -199 55
-23 4 -95 24 -160 45 -64 22 -168 53 -233 69 -64 17 -126 35 -137 42 -25 13
-28 40 -3 40 16 1 16 1 -1 11 -27 16 -11 29 36 30 23 1 33 3 22 6 -31 8 -38
19 -22 35 8 8 16 23 18 33 2 11 15 22 29 26 14 4 18 7 9 8 -18 1 -32 25 -22
35 4 3 14 6 24 6 9 0 19 7 22 14 3 8 23 18 44 22 l38 7 -30 13 c-17 7 -49 21
-73 30 -38 16 -41 20 -27 33 12 13 20 13 48 3 39 -14 63 -15 29 -1 -13 5 -22
15 -19 21 4 14 20 15 62 4 26 -7 26 -7 8 17 -10 13 -30 30 -46 37 -15 7 -26
15 -23 18 3 3 1 11 -6 19 -19 24 5 37 43 24 51 -18 63 -14 39 11 -11 12 -20
25 -20 30 0 4 -17 15 -37 23 -85 36 34 60 177 36 88 -15 200 -20 206 -9 3 5
12 4 20 -3 11 -9 14 -8 14 2 0 11 2 11 8 1 6 -8 15 8 26 46 17 56 17 61 1 96
-10 20 -22 39 -28 43 -23 14 -90 20 -135 11 -60 -11 -212 -17 -217 -8 -3 4
-22 4 -42 1 -40 -7 -111 -6 -153 2 -14 2 -28 5 -32 6 -18 3 -6 31 12 31 11 0
20 5 20 10 0 6 12 10 28 11 l27 1 -27 10 c-30 10 -36 23 -15 31 11 5 -37 11
-56 8 -5 -1 -7 6 -5 16 2 12 11 17 26 15 15 -2 22 2 22 12 0 9 8 16 18 17 9 0
35 2 57 4 22 2 65 7 95 9 30 3 73 11 95 19 l39 14 1 69 c0 55 -4 73 -20 91
-18 21 -29 24 -127 26 -80 1 -108 5 -108 15 0 7 8 15 18 18 49 16 56 23 20 20
-23 -2 -39 2 -42 9 -5 15 13 35 31 35 13 0 17 12 14 37 -1 6 3 14 8 17 5 4 -2
18 -16 32 -18 18 -22 29 -15 36 8 8 15 8 25 -1 12 -9 16 -8 20 3 3 8 16 16 29
18 18 4 16 6 -14 12 -21 5 -38 13 -38 19 0 15 32 36 56 37 14 0 21 6 20 17 -1
14 7 18 32 19 38 0 49 -10 32 -31 -10 -13 -8 -15 14 -16 39 -2 39 -2 70 -33
26 -27 27 -30 12 -42 -10 -7 -17 -16 -16 -20 1 -5 -7 -11 -17 -15 -15 -6 -15
-8 -2 -8 9 -1 28 8 42 19 14 11 39 20 55 20 25 0 30 -5 35 -30 4 -18 11 -28
19 -25 7 2 27 6 44 8 17 3 60 24 95 47 35 24 78 52 96 64 17 11 30 22 28 24
-1 2 -45 -14 -96 -36 -52 -22 -103 -42 -114 -46 -27 -8 -81 8 -77 23 2 9 -6
11 -28 6 -46 -10 -39 20 8 33 120 33 359 132 374 156 5 7 8 6 8 -3 0 -11 4
-10 14 4 8 11 19 16 30 12 9 -4 16 -1 16 6 0 8 3 7 9 -2 7 -11 11 -5 16 21 4
19 5 45 3 56 -3 20 -4 20 -68 -7z"/>
<path d="M3996 5207 c3 -10 9 -15 12 -12 3 3 0 11 -7 18 -10 9 -11 8 -5 -6z"/>
<path d="M4160 5200 c-19 -11 -57 -29 -85 -41 -111 -48 -215 -98 -215 -103 0
-2 6 -11 13 -18 53 -55 77 -102 111 -213 53 -176 67 -224 71 -246 2 -10 13
-49 24 -87 43 -138 83 -275 86 -291 3 -16 32 -119 61 -215 19 -67 19 -69 -18
-62 -33 6 -92 52 -222 169 -43 40 -84 74 -89 76 -9 3 -57 50 -57 56 0 1 13 32
30 68 43 95 57 188 41 274 -24 131 -87 223 -186 273 -41 20 -64 25 -130 24
-83 -1 -178 -16 -198 -32 -7 -6 -51 -26 -98 -45 -47 -20 -131 -57 -185 -82
-55 -26 -110 -51 -124 -57 l-25 -10 30 -24 c72 -61 95 -89 105 -128 21 -84 44
-163 72 -251 16 -49 36 -115 43 -145 19 -75 87 -319 118 -421 14 -46 36 -119
49 -161 l23 -77 35 18 c19 9 80 36 135 60 55 24 106 48 113 54 16 12 11 47
-18 147 -49 166 -62 213 -67 243 l-5 32 29 -26 c15 -14 90 -83 166 -152 77
-70 144 -127 149 -127 6 0 77 29 157 64 80 35 180 78 221 94 89 36 218 93 243
108 18 10 18 13 1 70 -10 32 -18 61 -19 64 0 3 -12 43 -27 90 -14 47 -34 114
-43 150 -10 36 -30 107 -46 158 -16 51 -29 101 -29 111 0 10 -3 21 -7 25 -4 3
-8 13 -9 21 -1 8 -11 43 -22 77 -20 63 -44 147 -101 348 -36 126 -48 160 -58
159 -5 0 -24 -9 -43 -19z"/>
<path d="M2016 4748 c3 -5 10 -6 15 -3 13 9 11 12 -6 12 -8 0 -12 -4 -9 -9z"/>
<path d="M2095 4710 c-3 -5 -1 -10 4 -10 6 0 11 -5 11 -11 0 -5 -6 -7 -12 -3
-10 6 -10 4 -3 -7 12 -16 13 -39 2 -56 -5 -7 -4 -13 0 -13 5 0 8 -45 8 -100 0
-55 3 -100 7 -100 9 0 7 300 -3 306 -4 2 -10 0 -14 -6z"/>
<path d="M2895 4591 c-22 -10 -74 -34 -115 -54 -41 -19 -99 -45 -128 -57 l-53
-23 44 -46 c32 -33 49 -62 60 -101 9 -30 25 -87 37 -125 11 -39 22 -80 24 -92
5 -23 18 -68 71 -248 18 -60 35 -119 38 -130 3 -11 29 -101 57 -200 28 -99 56
-198 62 -220 6 -22 12 -42 14 -44 6 -7 304 134 304 144 0 5 -14 57 -31 115
-17 58 -44 152 -60 210 -16 58 -38 134 -49 170 -29 95 -72 242 -75 254 -1 6
-4 18 -7 26 -10 28 -39 131 -43 150 -4 19 -14 55 -58 205 -14 49 -29 81 -38
82 -8 1 -32 -6 -54 -16z"/>
<path d="M2405 4484 c-77 -35 -194 -87 -227 -101 -46 -18 -47 -30 -8 -68 28
-27 30 -33 30 -109 0 -45 -7 -188 -17 -319 -19 -272 -13 -264 -100 -125 -107
170 -288 431 -303 436 -5 2 -30 -8 -57 -21 -26 -13 -59 -28 -73 -32 -14 -4
-57 -23 -96 -41 -39 -19 -76 -34 -82 -34 -32 0 4 -43 65 -79 11 -6 53 -206 68
-326 3 -27 17 -122 31 -210 13 -88 34 -221 45 -295 27 -184 72 -454 75 -459 3
-4 78 26 139 54 17 8 63 29 103 47 l74 33 -6 45 c-4 25 -11 77 -16 115 -5 39
-18 115 -28 171 -28 151 -20 156 72 43 210 -254 242 -288 266 -282 28 7 28 9
35 99 3 43 12 122 20 174 8 52 16 122 19 155 3 33 9 78 13 100 4 22 6 46 4 53
-1 6 2 12 7 12 8 0 52 -88 52 -103 0 -3 15 -38 34 -79 18 -40 44 -100 56 -133
27 -68 48 -105 61 -105 5 0 50 20 101 44 51 24 117 54 146 67 44 19 51 26 46
43 -3 12 -10 25 -15 31 -5 5 -9 15 -9 23 0 7 -9 32 -19 55 -10 23 -40 96 -66
162 -26 66 -53 134 -61 150 -30 66 -84 200 -84 207 0 5 -9 27 -19 51 -11 23
-38 87 -61 142 -23 55 -47 114 -55 130 -7 17 -28 68 -45 115 -18 47 -36 89
-41 95 -5 5 -9 17 -9 26 0 9 -8 26 -17 37 -16 19 -21 19 -48 6z"/>
<path d="M2520 4452 c0 -7 8 -31 19 -55 50 -113 71 -165 71 -176 0 -6 4 -19
10 -29 5 -9 39 -89 75 -177 88 -215 97 -235 105 -235 4 0 5 11 2 25 -2 14 -8
25 -13 25 -5 0 -9 8 -9 17 0 10 -9 47 -19 83 -11 36 -29 97 -39 135 -74 269
-72 265 -139 335 -34 36 -62 59 -63 52z"/>
<path d="M2037 4383 c-12 -12 -7 -33 8 -33 17 0 19 9 7 28 -5 7 -11 9 -15 5z"/>
<path d="M2083 4308 l2 -23 -230 0 c-146 0 -233 -3 -237 -10 -5 -6 -8 -4 -8 5
0 13 -1 13 -10 0 -7 -11 -10 -11 -10 -2 0 7 -5 10 -12 6 -11 -7 -49 -11 -191
-18 -115 -5 -106 -16 14 -17 120 -1 101 -16 -23 -18 l-78 -1 0 -76 c0 -54 3
-73 12 -68 6 4 16 0 22 -8 6 -8 19 -17 29 -21 11 -4 15 -12 11 -18 -4 -8 -3
-9 5 -5 6 4 14 0 17 -8 3 -9 12 -16 19 -16 6 0 22 -9 35 -20 13 -11 26 -20 29
-20 6 1 -1 7 -87 75 -24 19 -39 35 -33 35 6 0 43 16 82 35 40 19 78 35 86 35
7 0 13 5 13 10 0 6 6 10 13 10 8 0 41 14 75 30 34 17 66 30 71 30 5 0 27 10
50 22 l40 21 26 -29 c13 -16 80 -112 147 -214 68 -102 125 -187 129 -190 3 -3
8 -13 12 -23 14 -38 25 -3 31 105 4 62 9 147 12 188 7 88 7 76 5 123 -1 26 -9
46 -30 67 -34 36 -42 37 -38 8z m38 -155 c3 -40 -2 -237 -5 -241 -5 -4 -84
110 -93 135 -3 10 -18 36 -33 58 -15 22 -30 46 -34 53 -5 9 13 12 78 12 75 0
86 -2 87 -17z"/>
<path d="M1490 3952 c0 -13 4 -20 10 -17 6 4 8 -13 6 -45 -2 -27 1 -50 6 -50
5 0 6 -4 3 -10 -3 -5 -1 -10 4 -10 6 0 11 -10 12 -22 0 -13 3 -18 5 -11 3 6 0
31 -7 55 -7 24 -11 54 -10 68 1 14 -5 34 -13 45 -15 20 -15 20 -16 -3z"/>
<path d="M7020 3786 c0 -2 13 -6 29 -8 17 -2 28 -1 25 4 -5 8 -54 12 -54 4z"/>
<path d="M1530 3760 c0 -5 5 -10 10 -10 6 0 10 5 10 10 0 6 -4 10 -10 10 -5 0
-10 -4 -10 -10z"/>
<path d="M1530 3725 c0 -4 7 -19 15 -34 8 -16 11 -31 8 -35 -4 -3 -1 -6 5 -6
16 0 15 21 -3 44 -8 10 -12 23 -9 27 3 5 0 9 -5 9 -6 0 -11 -2 -11 -5z"/>
<path d="M1559 3618 c-4 -12 -5 -57 0 -53 6 6 10 55 4 55 -1 0 -3 -1 -4 -2z"/>
<path d="M1573 3511 c1 -22 4 -41 8 -41 8 0 4 68 -5 77 -3 3 -4 -13 -3 -36z"/>
<path d="M1573 3445 c0 -8 5 -15 11 -15 6 0 4 -5 -4 -10 -13 -9 -13 -10 0 -10
13 0 13 -1 0 -10 -13 -8 -13 -10 0 -10 11 0 11 -3 2 -12 -15 -15 -16 -32 -2
-23 6 3 10 -3 10 -14 0 -12 5 -21 11 -21 6 0 8 9 4 21 -4 12 -8 39 -9 61 -2
37 -23 77 -23 43z"/>
<path d="M1597 3296 c-3 -8 0 -20 8 -26 12 -10 13 -8 10 10 -6 29 -11 34 -18
16z"/>
<path d="M1614 3210 c-1 -22 2 -40 7 -40 5 0 9 -5 9 -11 0 -5 -4 -8 -8 -5 -4
2 -8 -4 -8 -14 0 -10 4 -16 8 -14 9 6 10 -3 10 -63 -1 -27 3 -43 11 -43 8 0 8
-3 -2 -9 -10 -6 -10 -10 -1 -16 9 -6 9 -10 -1 -16 -10 -6 -11 -9 -1 -9 6 0 12
-6 12 -14 0 -8 -6 -17 -12 -19 -10 -4 -9 -6 1 -6 11 -1 11 -4 0 -18 -12 -14
-12 -16 2 -11 9 4 16 1 16 -7 0 -8 -7 -11 -16 -7 -9 3 -5 -5 9 -17 14 -12 18
-19 10 -15 -12 6 -13 4 -2 -7 6 -7 12 -20 12 -29 0 -13 -1 -13 -10 0 -6 9 -10
10 -10 3 0 -6 5 -15 10 -18 8 -5 7 -12 -2 -23 -11 -14 -10 -15 6 -9 14 6 17 4
12 -8 -3 -8 -1 -15 4 -15 6 0 10 -5 10 -11 0 -5 -5 -7 -12 -3 -7 4 -8 3 -4 -5
4 -6 12 -9 17 -5 6 3 7 -7 4 -25 -3 -17 -1 -31 3 -31 13 0 12 27 -4 110 -25
134 -55 334 -55 372 0 10 -4 20 -8 23 -5 2 -7 20 -4 40 2 19 0 35 -4 35 -5 0
-9 -18 -9 -40z"/>
<path d="M2081 3098 c13 -65 27 -157 34 -213 4 -27 9 -58 11 -68 6 -18 -49
-47 -251 -132 -49 -20 -94 -41 -100 -46 -5 -5 -17 -9 -27 -9 -10 0 -18 -5 -18
-11 0 -6 8 -8 19 -4 14 4 25 -1 37 -19 l16 -26 28 20 c34 24 105 56 183 81 68
22 149 64 172 89 14 15 13 25 -9 101 -33 114 -34 130 -13 143 15 9 23 5 48
-24 17 -19 35 -45 40 -57 7 -19 49 -52 49 -39 0 11 -211 256 -221 256 -3 0 -3
-19 2 -42z"/>
<path d="M1696 2651 c-3 -5 0 -14 7 -19 10 -8 13 -6 14 9 2 19 -11 26 -21 10z"/>
<path d="M6071 2520 c-13 -11 -19 -20 -14 -20 6 0 18 9 28 20 23 25 17 25 -14
0z"/>
</g>
</svg>
